<svg width="341" height="40" viewBox="0 0 341 40" fill="none" xmlns="http://www.w3.org/2000/svg">
<path d="M283.767 27.4564L282.422 22.7445L282.316 22.3721L281.94 22.4663L277.187 23.6577L280.596 20.1372L280.865 19.8589L280.596 19.5807L277.187 16.0602L281.94 17.2516L282.316 17.3458L282.422 16.9734L283.767 12.2615L285.112 16.9734L285.218 17.3458L285.594 17.2516L290.346 16.0602L286.938 19.5807L286.669 19.8589L286.938 20.1372L290.346 23.6577L285.594 22.4663L285.218 22.3721L285.112 22.7445L283.767 27.4564Z" stroke="#FEEB81" stroke-width="0.8"/>
<path d="M51.0068 27.4563L49.6621 22.7444L49.5558 22.372L49.1802 22.4661L44.4272 23.6575L47.8355 20.137L48.1048 19.8588L47.8355 19.5806L44.4272 16.0601L49.1802 17.2515L49.5558 17.3457L49.6621 16.9733L51.0068 12.2614L52.3515 16.9733L52.4578 17.3457L52.8334 17.2515L57.5864 16.0601L54.1781 19.5806L53.9088 19.8588L54.1781 20.1371L57.5864 23.6575L52.8334 22.4662L52.4578 22.372L52.3515 22.7444L51.0068 27.4563Z" stroke="#FEEB81" stroke-width="0.8"/>
<path d="M207.342 27.0574L207.342 16.7477M212.362 21.9738L202.319 21.9738" stroke="#FEEB81" stroke-linecap="round"/>
<path d="M127.661 27.0574L127.661 16.7477M132.681 21.9738L122.637 21.9738" stroke="#FEEB81" stroke-linecap="round"/>
<mask id="path-5-inside-1_139_150" fill="white">
<path d="M233.621 25.1709C233.621 25.1709 233.167 22.9741 232.41 22.1808C231.652 21.3876 230.334 20.9638 230.334 20.9638C230.334 20.9638 231.708 20.2804 232.41 19.378C233.186 18.3797 233.621 16.6684 233.621 16.6684C233.621 16.6684 234.012 18.3628 234.848 19.378C235.446 20.1052 237.093 20.9638 237.093 20.9638C237.093 20.9638 235.66 21.3471 234.848 22.1808C234.11 22.9383 233.621 25.1709 233.621 25.1709Z"/>
</mask>
<path d="M233.621 25.1709L233.132 25.272L234.11 25.2778L233.621 25.1709ZM230.334 20.9638L230.111 20.5161L229.01 21.0635L230.181 21.4398L230.334 20.9638ZM232.41 19.378L232.804 19.6849L232.41 19.378ZM233.621 16.6684L234.108 16.556L233.137 16.5452L233.621 16.6684ZM234.848 19.378L234.462 19.6957L234.848 19.378ZM237.093 20.9638L237.222 21.4468L238.463 21.1147L237.324 20.5204L237.093 20.9638ZM234.848 22.1808L234.49 21.8319L234.848 22.1808ZM233.621 25.1709C234.111 25.0698 234.111 25.0697 234.111 25.0696C234.111 25.0696 234.111 25.0695 234.111 25.0694C234.111 25.0693 234.111 25.0691 234.111 25.0689C234.111 25.0684 234.111 25.0679 234.11 25.0672C234.11 25.0658 234.11 25.0638 234.109 25.0614C234.108 25.0565 234.107 25.0496 234.105 25.0407C234.101 25.023 234.095 24.9974 234.088 24.965C234.073 24.9002 234.052 24.8076 234.024 24.6944C233.967 24.4685 233.884 24.1579 233.776 23.8205C233.668 23.4842 233.533 23.1135 233.371 22.7701C233.213 22.4331 233.015 22.0909 232.771 21.8354L232.048 22.5262C232.183 22.6674 232.326 22.8972 232.466 23.1952C232.603 23.4868 232.723 23.8141 232.824 24.1262C232.923 24.4371 233.001 24.7253 233.053 24.9361C233.08 25.0412 233.099 25.1265 233.112 25.1849C233.119 25.2141 233.124 25.2365 233.127 25.2514C233.129 25.2588 233.13 25.2643 233.131 25.2678C233.131 25.2695 233.131 25.2707 233.131 25.2715C233.132 25.2718 233.132 25.272 233.132 25.2721C233.132 25.2722 233.132 25.2722 233.132 25.2722C233.132 25.2722 233.132 25.2721 233.132 25.2721C233.132 25.2721 233.132 25.272 233.621 25.1709ZM232.771 21.8354C232.332 21.3753 231.75 21.0399 231.305 20.8247C231.078 20.7149 230.877 20.6318 230.731 20.5758C230.658 20.5477 230.599 20.5263 230.557 20.5116C230.536 20.5043 230.519 20.4986 230.508 20.4947C230.502 20.4927 230.497 20.4911 230.493 20.4899C230.492 20.4894 230.49 20.4889 230.489 20.4885C230.489 20.4884 230.488 20.4882 230.488 20.4881C230.487 20.488 230.487 20.488 230.487 20.4879C230.487 20.4879 230.487 20.4879 230.487 20.4878C230.487 20.4878 230.487 20.4878 230.334 20.9638C230.181 21.4398 230.181 21.4398 230.18 21.4397C230.18 21.4397 230.18 21.4397 230.18 21.4397C230.18 21.4397 230.18 21.4397 230.18 21.4396C230.18 21.4396 230.18 21.4396 230.18 21.4396C230.18 21.4397 230.181 21.4399 230.182 21.4401C230.183 21.4406 230.186 21.4415 230.19 21.4428C230.198 21.4454 230.21 21.4497 230.227 21.4555C230.26 21.4671 230.309 21.485 230.372 21.509C230.497 21.5573 230.673 21.6296 230.87 21.725C231.273 21.92 231.73 22.1931 232.048 22.5262L232.771 21.8354ZM230.334 20.9638C230.556 21.4115 230.556 21.4114 230.556 21.4114C230.557 21.4114 230.557 21.4113 230.557 21.4113C230.557 21.4112 230.557 21.4112 230.557 21.4111C230.558 21.4109 230.558 21.4107 230.558 21.4104C230.56 21.4099 230.561 21.4092 230.563 21.4083C230.566 21.4066 230.571 21.4042 230.577 21.4012C230.588 21.3952 230.605 21.3865 230.627 21.3753C230.669 21.353 230.729 21.3207 230.803 21.2793C230.951 21.1966 231.156 21.0768 231.383 20.927C231.83 20.6334 232.403 20.2011 232.804 19.6849L232.015 19.071C231.715 19.4573 231.25 19.8178 230.834 20.0915C230.63 20.2254 230.447 20.3328 230.315 20.4065C230.25 20.4432 230.197 20.4714 230.162 20.49C230.144 20.4993 230.131 20.5062 230.122 20.5106C230.118 20.5128 230.115 20.5143 230.113 20.5153C230.112 20.5157 230.111 20.516 230.111 20.5162C230.111 20.5162 230.111 20.5163 230.111 20.5163C230.111 20.5162 230.111 20.5162 230.111 20.5162C230.111 20.5162 230.111 20.5162 230.111 20.5162C230.111 20.5161 230.111 20.5161 230.334 20.9638ZM232.804 19.6849C233.24 19.1247 233.564 18.3899 233.775 17.8234C233.883 17.5349 233.965 17.2793 234.02 17.0953C234.048 17.0032 234.069 16.9287 234.083 16.8766C234.09 16.8505 234.096 16.83 234.1 16.8156C234.101 16.8084 234.103 16.8028 234.104 16.7988C234.104 16.7968 234.105 16.7952 234.105 16.794C234.105 16.7934 234.106 16.7929 234.106 16.7925C234.106 16.7923 234.106 16.7921 234.106 16.792C234.106 16.7919 234.106 16.7918 234.106 16.7918C234.106 16.7917 234.106 16.7916 233.621 16.6684C233.137 16.5452 233.137 16.5451 233.137 16.545C233.137 16.545 233.137 16.545 233.137 16.545C233.137 16.5449 233.137 16.5449 233.137 16.5449C233.137 16.545 233.137 16.5451 233.137 16.5453C233.137 16.5458 233.136 16.5466 233.136 16.5479C233.135 16.5504 233.134 16.5545 233.133 16.5601C233.13 16.5713 233.125 16.5885 233.119 16.6112C233.106 16.6565 233.088 16.7235 233.062 16.8074C233.012 16.9755 232.936 17.2102 232.838 17.4743C232.637 18.0129 232.356 18.6329 232.015 19.071L232.804 19.6849ZM233.621 16.6684C233.134 16.7808 233.134 16.7809 233.134 16.781C233.134 16.781 233.134 16.7811 233.134 16.7812C233.134 16.7813 233.134 16.7815 233.134 16.7817C233.134 16.7821 233.134 16.7827 233.135 16.7833C233.135 16.7846 233.135 16.7862 233.136 16.7883C233.137 16.7924 233.138 16.7981 233.14 16.8054C233.143 16.8199 233.148 16.8405 233.155 16.8667C233.169 16.919 233.188 16.9936 233.214 17.0858C233.267 17.2698 233.346 17.5255 233.452 17.8148C233.661 18.3835 233.99 19.1232 234.462 19.6957L235.234 19.0602C234.869 18.6175 234.586 18.0024 234.39 17.4701C234.295 17.2089 234.223 16.9776 234.176 16.8122C234.153 16.7297 234.135 16.6639 234.124 16.6196C234.119 16.5975 234.114 16.5807 234.112 16.5699C234.11 16.5645 234.11 16.5606 234.109 16.5583C234.109 16.5571 234.109 16.5563 234.108 16.5559C234.108 16.5558 234.108 16.5557 234.108 16.5557C234.108 16.5557 234.108 16.5557 234.108 16.5558C234.108 16.5558 234.108 16.5559 234.108 16.5559C234.108 16.5559 234.108 16.556 233.621 16.6684ZM234.462 19.6957C234.818 20.1287 235.444 20.5623 235.929 20.867C236.181 21.0252 236.413 21.1596 236.581 21.2543C236.666 21.3018 236.735 21.3395 236.783 21.3656C236.808 21.3786 236.827 21.3888 236.84 21.3958C236.847 21.3993 236.852 21.402 236.855 21.4039C236.857 21.4049 236.859 21.4056 236.86 21.4061C236.86 21.4064 236.86 21.4066 236.861 21.4068C236.861 21.4069 236.861 21.4069 236.861 21.407C236.861 21.407 236.861 21.4071 236.861 21.4071C236.861 21.4071 236.861 21.4071 237.093 20.9638C237.324 20.5204 237.324 20.5205 237.324 20.5205C237.324 20.5205 237.324 20.5205 237.324 20.5205C237.324 20.5205 237.324 20.5205 237.324 20.5205C237.324 20.5204 237.324 20.5203 237.323 20.5202C237.323 20.5199 237.322 20.5194 237.321 20.5187C237.318 20.5173 237.314 20.5151 237.308 20.5121C237.297 20.5062 237.28 20.4972 237.258 20.4853C237.214 20.4616 237.15 20.4266 237.071 20.3822C236.912 20.2933 236.695 20.1675 236.461 20.0202C235.973 19.7138 235.476 19.3545 235.234 19.0602L234.462 19.6957ZM237.093 20.9638C236.963 20.4808 236.963 20.4808 236.963 20.4808C236.963 20.4808 236.963 20.4809 236.963 20.4809C236.963 20.4809 236.963 20.481 236.962 20.481C236.962 20.4812 236.961 20.4813 236.961 20.4815C236.96 20.4818 236.958 20.4822 236.956 20.4827C236.952 20.4838 236.947 20.4852 236.941 20.487C236.928 20.4906 236.91 20.4958 236.887 20.5026C236.842 20.5161 236.777 20.536 236.698 20.5623C236.54 20.6149 236.321 20.6941 236.075 20.8012C235.593 21.0111 234.962 21.3466 234.49 21.8319L235.206 22.5297C235.545 22.1813 236.037 21.9083 236.474 21.7181C236.688 21.6252 236.878 21.5564 237.014 21.5111C237.082 21.4885 237.136 21.4719 237.172 21.4612C237.19 21.4558 237.203 21.452 237.212 21.4496C237.216 21.4484 237.219 21.4475 237.221 21.4471C237.222 21.4469 237.222 21.4467 237.222 21.4467C237.222 21.4466 237.222 21.4466 237.222 21.4467C237.222 21.4467 237.222 21.4467 237.222 21.4467C237.222 21.4467 237.222 21.4467 237.222 21.4468C237.222 21.4468 237.222 21.4468 237.093 20.9638ZM234.49 21.8319C234.248 22.0799 234.051 22.4198 233.893 22.7536C233.731 23.0948 233.594 23.466 233.483 23.8039C233.371 24.1431 233.284 24.4565 233.225 24.6848C233.195 24.7992 233.173 24.8928 233.157 24.9583C233.149 24.9911 233.143 25.0169 233.139 25.0349C233.137 25.0438 233.136 25.0508 233.135 25.0557C233.134 25.0582 233.134 25.0601 233.133 25.0615C233.133 25.0622 233.133 25.0627 233.133 25.0632C233.133 25.0634 233.133 25.0636 233.133 25.0637C233.133 25.0638 233.133 25.0639 233.133 25.0639C233.133 25.064 233.133 25.064 233.621 25.1709C234.11 25.2778 234.11 25.2778 234.11 25.2778C234.11 25.2778 234.11 25.2779 234.11 25.2779C234.11 25.2779 234.11 25.2779 234.11 25.2778C234.11 25.2777 234.11 25.2775 234.11 25.2771C234.11 25.2763 234.11 25.275 234.111 25.2732C234.111 25.2696 234.113 25.264 234.114 25.2564C234.118 25.2413 234.123 25.2184 234.13 25.1886C234.144 25.1291 234.165 25.0424 234.193 24.9357C234.249 24.7217 234.33 24.4296 234.433 24.1159C234.536 23.8009 234.659 23.472 234.797 23.1816C234.938 22.8837 235.078 22.6604 235.206 22.5297L234.49 21.8319Z" fill="#FEEB81" mask="url(#path-5-inside-1_139_150)"/>
<mask id="path-7-inside-2_139_150" fill="white">
<path d="M102.194 25.1709C102.194 25.1709 101.741 22.9741 100.983 22.1808C100.225 21.3876 98.9069 20.9638 98.9069 20.9638C98.9069 20.9638 100.281 20.2804 100.983 19.378C101.759 18.3797 102.194 16.6684 102.194 16.6684C102.194 16.6684 102.585 18.3628 103.421 19.378C104.019 20.1052 105.666 20.9638 105.666 20.9638C105.666 20.9638 104.233 21.3471 103.421 22.1808C102.683 22.9383 102.194 25.1709 102.194 25.1709Z"/>
</mask>
<path d="M102.194 25.1709L101.705 25.272L102.683 25.2778L102.194 25.1709ZM98.9069 20.9638L98.6842 20.5161L97.5835 21.0635L98.7539 21.4398L98.9069 20.9638ZM100.983 19.378L101.378 19.6849L100.983 19.378ZM102.194 16.6684L102.682 16.556L101.71 16.5452L102.194 16.6684ZM103.421 19.378L103.035 19.6957L103.421 19.378ZM105.666 20.9638L105.795 21.4468L107.037 21.1147L105.897 20.5204L105.666 20.9638ZM103.421 22.1808L103.063 21.8319L103.421 22.1808ZM102.194 25.1709C102.684 25.0698 102.684 25.0697 102.684 25.0696C102.684 25.0696 102.684 25.0695 102.684 25.0694C102.684 25.0693 102.684 25.0691 102.684 25.0689C102.684 25.0684 102.684 25.0679 102.684 25.0672C102.683 25.0658 102.683 25.0638 102.682 25.0614C102.681 25.0565 102.68 25.0496 102.678 25.0407C102.674 25.023 102.669 24.9974 102.661 24.965C102.647 24.9002 102.625 24.8076 102.597 24.6944C102.541 24.4685 102.457 24.1579 102.349 23.8205C102.241 23.4842 102.106 23.1135 101.944 22.7701C101.786 22.4331 101.588 22.0909 101.344 21.8354L100.621 22.5262C100.756 22.6674 100.899 22.8972 101.039 23.1952C101.176 23.4868 101.297 23.8141 101.397 24.1262C101.497 24.4371 101.574 24.7253 101.627 24.9361C101.653 25.0412 101.673 25.1265 101.686 25.1849C101.692 25.2141 101.697 25.2365 101.7 25.2514C101.702 25.2588 101.703 25.2643 101.704 25.2678C101.704 25.2695 101.705 25.2707 101.705 25.2715C101.705 25.2718 101.705 25.272 101.705 25.2721C101.705 25.2722 101.705 25.2722 101.705 25.2722C101.705 25.2722 101.705 25.2721 101.705 25.2721C101.705 25.2721 101.705 25.272 102.194 25.1709ZM101.344 21.8354C100.905 21.3753 100.324 21.0399 99.8784 20.8247C99.6513 20.7149 99.4498 20.6318 99.3043 20.5758C99.2314 20.5477 99.1721 20.5263 99.1302 20.5116C99.1093 20.5043 99.0926 20.4986 99.0808 20.4947C99.0748 20.4927 99.0701 20.4911 99.0666 20.4899C99.0648 20.4894 99.0634 20.4889 99.0623 20.4885C99.0617 20.4884 99.0613 20.4882 99.0609 20.4881C99.0607 20.488 99.0605 20.488 99.0603 20.4879C99.0602 20.4879 99.0601 20.4879 99.0601 20.4878C99.06 20.4878 99.0599 20.4878 98.9069 20.9638C98.7539 21.4398 98.7538 21.4398 98.7537 21.4397C98.7537 21.4397 98.7536 21.4397 98.7536 21.4397C98.7535 21.4397 98.7534 21.4397 98.7534 21.4396C98.7533 21.4396 98.7533 21.4396 98.7534 21.4396C98.7536 21.4397 98.754 21.4399 98.7548 21.4401C98.7564 21.4406 98.7591 21.4415 98.763 21.4428C98.7708 21.4454 98.7832 21.4497 98.7998 21.4555C98.833 21.4671 98.8826 21.485 98.9451 21.509C99.0705 21.5573 99.2459 21.6296 99.4431 21.725C99.8465 21.92 100.303 22.1931 100.621 22.5262L101.344 21.8354ZM98.9069 20.9638C99.1295 21.4115 99.1296 21.4114 99.1297 21.4114C99.1297 21.4114 99.1298 21.4113 99.1299 21.4113C99.13 21.4112 99.1302 21.4112 99.1304 21.4111C99.1307 21.4109 99.1312 21.4107 99.1317 21.4104C99.1327 21.4099 99.1341 21.4092 99.1358 21.4083C99.1392 21.4066 99.1439 21.4042 99.1498 21.4012C99.1617 21.3952 99.1785 21.3865 99.1998 21.3753C99.2422 21.353 99.3025 21.3207 99.3766 21.2793C99.5245 21.1966 99.7288 21.0768 99.9565 20.927C100.403 20.6334 100.976 20.2011 101.378 19.6849L100.588 19.071C100.288 19.4573 99.8231 19.8178 99.407 20.0915C99.2034 20.2254 99.0203 20.3328 98.8886 20.4065C98.8228 20.4432 98.7703 20.4714 98.7349 20.49C98.7172 20.4993 98.7038 20.5062 98.6951 20.5106C98.6908 20.5128 98.6877 20.5143 98.6859 20.5153C98.685 20.5157 98.6844 20.516 98.6841 20.5162C98.684 20.5162 98.6839 20.5163 98.6839 20.5163C98.6839 20.5162 98.684 20.5162 98.684 20.5162C98.684 20.5162 98.6841 20.5162 98.6841 20.5162C98.6842 20.5161 98.6842 20.5161 98.9069 20.9638ZM101.378 19.6849C101.813 19.1247 102.137 18.3899 102.348 17.8234C102.456 17.5349 102.538 17.2793 102.593 17.0953C102.621 17.0032 102.642 16.9287 102.656 16.8766C102.663 16.8505 102.669 16.83 102.673 16.8156C102.675 16.8084 102.676 16.8028 102.677 16.7988C102.678 16.7968 102.678 16.7952 102.678 16.794C102.679 16.7934 102.679 16.7929 102.679 16.7925C102.679 16.7923 102.679 16.7921 102.679 16.792C102.679 16.7919 102.679 16.7918 102.679 16.7918C102.679 16.7917 102.679 16.7916 102.194 16.6684C101.71 16.5452 101.71 16.5451 101.71 16.545C101.71 16.545 101.71 16.545 101.71 16.545C101.71 16.5449 101.71 16.5449 101.71 16.5449C101.71 16.545 101.71 16.5451 101.71 16.5453C101.71 16.5458 101.709 16.5466 101.709 16.5479C101.709 16.5504 101.707 16.5545 101.706 16.5601C101.703 16.5713 101.698 16.5885 101.692 16.6112C101.68 16.6565 101.661 16.7235 101.636 16.8074C101.585 16.9755 101.51 17.2102 101.411 17.4743C101.211 18.0129 100.929 18.6329 100.588 19.071L101.378 19.6849ZM102.194 16.6684C101.707 16.7808 101.707 16.7809 101.707 16.781C101.707 16.781 101.707 16.7811 101.707 16.7812C101.707 16.7813 101.707 16.7815 101.707 16.7817C101.708 16.7821 101.708 16.7827 101.708 16.7833C101.708 16.7846 101.709 16.7862 101.709 16.7883C101.71 16.7924 101.711 16.7981 101.713 16.8054C101.717 16.8199 101.722 16.8405 101.728 16.8667C101.742 16.919 101.761 16.9936 101.788 17.0858C101.84 17.2698 101.919 17.5255 102.025 17.8148C102.234 18.3835 102.564 19.1232 103.035 19.6957L103.807 19.0602C103.443 18.6175 103.159 18.0024 102.964 17.4701C102.868 17.2089 102.797 16.9776 102.749 16.8122C102.726 16.7297 102.709 16.6639 102.697 16.6196C102.692 16.5975 102.688 16.5807 102.685 16.5699C102.684 16.5645 102.683 16.5606 102.682 16.5583C102.682 16.5571 102.682 16.5563 102.682 16.5559C102.682 16.5558 102.682 16.5557 102.682 16.5557C102.682 16.5557 102.682 16.5557 102.682 16.5558C102.682 16.5558 102.682 16.5559 102.682 16.5559C102.682 16.5559 102.682 16.556 102.194 16.6684ZM103.035 19.6957C103.391 20.1287 104.017 20.5623 104.502 20.867C104.754 21.0252 104.986 21.1596 105.155 21.2543C105.239 21.3018 105.308 21.3395 105.357 21.3656C105.381 21.3786 105.4 21.3888 105.413 21.3958C105.42 21.3993 105.425 21.402 105.429 21.4039C105.43 21.4049 105.432 21.4056 105.433 21.4061C105.433 21.4064 105.434 21.4066 105.434 21.4068C105.434 21.4069 105.434 21.4069 105.434 21.407C105.434 21.407 105.435 21.4071 105.435 21.4071C105.435 21.4071 105.435 21.4071 105.666 20.9638C105.897 20.5204 105.897 20.5205 105.897 20.5205C105.897 20.5205 105.897 20.5205 105.897 20.5205C105.897 20.5205 105.897 20.5205 105.897 20.5205C105.897 20.5204 105.897 20.5203 105.897 20.5202C105.896 20.5199 105.895 20.5194 105.894 20.5187C105.891 20.5173 105.887 20.5151 105.881 20.5121C105.87 20.5062 105.853 20.4972 105.831 20.4853C105.787 20.4616 105.723 20.4266 105.644 20.3822C105.485 20.2933 105.268 20.1675 105.034 20.0202C104.546 19.7138 104.049 19.3545 103.807 19.0602L103.035 19.6957ZM105.666 20.9638C105.537 20.4808 105.537 20.4808 105.536 20.4808C105.536 20.4808 105.536 20.4809 105.536 20.4809C105.536 20.4809 105.536 20.481 105.536 20.481C105.535 20.4812 105.535 20.4813 105.534 20.4815C105.533 20.4818 105.531 20.4822 105.529 20.4827C105.526 20.4838 105.52 20.4852 105.514 20.487C105.501 20.4906 105.483 20.4958 105.46 20.5026C105.415 20.5161 105.35 20.536 105.271 20.5623C105.113 20.6149 104.895 20.6941 104.648 20.8012C104.166 21.0111 103.536 21.3466 103.063 21.8319L103.779 22.5297C104.118 22.1813 104.61 21.9083 105.047 21.7181C105.261 21.6252 105.451 21.5564 105.587 21.5111C105.655 21.4885 105.709 21.4719 105.745 21.4612C105.763 21.4558 105.777 21.452 105.785 21.4496C105.789 21.4484 105.792 21.4475 105.794 21.4471C105.795 21.4469 105.795 21.4467 105.796 21.4467C105.796 21.4466 105.796 21.4466 105.796 21.4467C105.796 21.4467 105.795 21.4467 105.795 21.4467C105.795 21.4467 105.795 21.4467 105.795 21.4468C105.795 21.4468 105.795 21.4468 105.666 20.9638ZM103.063 21.8319C102.821 22.0799 102.624 22.4198 102.466 22.7536C102.304 23.0948 102.167 23.466 102.056 23.8039C101.945 24.1431 101.857 24.4565 101.798 24.6848C101.769 24.7992 101.746 24.8928 101.73 24.9583C101.723 24.9911 101.717 25.0169 101.713 25.0349C101.711 25.0438 101.709 25.0508 101.708 25.0557C101.707 25.0582 101.707 25.0601 101.707 25.0615C101.706 25.0622 101.706 25.0627 101.706 25.0632C101.706 25.0634 101.706 25.0636 101.706 25.0637C101.706 25.0638 101.706 25.0639 101.706 25.0639C101.706 25.064 101.706 25.064 102.194 25.1709C102.683 25.2778 102.683 25.2778 102.683 25.2778C102.683 25.2778 102.683 25.2779 102.683 25.2779C102.683 25.2779 102.683 25.2779 102.683 25.2778C102.683 25.2777 102.683 25.2775 102.683 25.2771C102.683 25.2763 102.684 25.275 102.684 25.2732C102.685 25.2696 102.686 25.264 102.688 25.2564C102.691 25.2413 102.696 25.2184 102.703 25.1886C102.718 25.1291 102.739 25.0424 102.766 24.9357C102.822 24.7217 102.903 24.4296 103.006 24.1159C103.109 23.8009 103.232 23.472 103.37 23.1816C103.511 22.8837 103.652 22.6604 103.779 22.5297L103.063 21.8319Z" fill="#FEEB81" mask="url(#path-7-inside-2_139_150)"/>
<path d="M260.074 13.3179C260.03 13.3394 259.985 13.3628 259.938 13.3881C259.627 13.5566 259.232 13.8205 258.94 14.1933C258.798 14.3755 258.678 14.6298 258.579 14.8901C258.492 15.1202 258.415 15.3696 258.35 15.6061C258.288 15.3745 258.213 15.1302 258.127 14.9029C258.028 14.6404 257.908 14.3836 257.764 14.1952C257.492 13.8417 257.128 13.5783 256.842 13.4059C256.798 13.3796 256.755 13.3552 256.715 13.3327C256.768 13.2924 256.825 13.2477 256.885 13.199C257.171 12.9642 257.53 12.6257 257.777 12.2299C258.02 11.8414 258.209 11.3385 258.342 10.9142C258.475 11.3377 258.668 11.8405 258.929 12.2353C259.146 12.5641 259.537 12.9036 259.852 13.1498C259.93 13.2108 260.005 13.2673 260.074 13.3179Z" stroke="#FEEB81" stroke-width="0.5"/>
<path d="M339.884 11.6473C339.841 11.6687 339.796 11.6921 339.749 11.7175C339.438 11.8859 339.043 12.1498 338.751 12.5227C338.608 12.7048 338.489 12.9591 338.39 13.2194C338.302 13.4496 338.225 13.6989 338.16 13.9355C338.098 13.7038 338.024 13.4595 337.938 13.2322C337.839 12.9698 337.719 12.713 337.574 12.5246C337.303 12.171 336.938 11.9077 336.652 11.7353C336.608 11.7089 336.566 11.6845 336.526 11.662C336.579 11.6217 336.636 11.577 336.695 11.5284C336.982 11.2935 337.34 10.955 337.588 10.5592C337.83 10.1707 338.019 9.66785 338.153 9.24352C338.285 9.66701 338.478 10.1698 338.739 10.5647C338.956 10.8934 339.347 11.233 339.662 11.4791C339.74 11.5401 339.815 11.5966 339.884 11.6473Z" stroke="#FEEB81" stroke-width="0.5"/>
<path d="M4.22347 11.6473C4.18031 11.6687 4.13505 11.6921 4.08825 11.7175C3.77737 11.8859 3.38204 12.1498 3.09023 12.5227C2.9477 12.7048 2.82814 12.9591 2.72913 13.2194C2.64159 13.4496 2.56475 13.6989 2.49994 13.9355C2.43742 13.7038 2.36296 13.4595 2.27721 13.2322C2.17821 12.9698 2.058 12.713 1.91344 12.5246C1.64218 12.171 1.27788 11.9077 0.991467 11.7353C0.947691 11.7089 0.905389 11.6845 0.865101 11.662C0.918108 11.6217 0.975047 11.577 1.03447 11.5284C1.32131 11.2935 1.67988 10.955 1.92713 10.5592C2.16985 10.1707 2.35891 9.66785 2.49215 9.24352C2.62459 9.66701 2.81751 10.1698 3.07856 10.5647C3.29591 10.8934 3.68685 11.233 4.00163 11.4791C4.07958 11.5401 4.15457 11.5966 4.22347 11.6473Z" stroke="#FEEB81" stroke-width="0.5"/>
<path d="M79.2617 13.3179C79.2186 13.3394 79.1733 13.3628 79.1265 13.3881C78.8156 13.5566 78.4203 13.8205 78.1285 14.1933C77.986 14.3755 77.8664 14.6298 77.7674 14.8901C77.6799 15.1202 77.603 15.3696 77.5382 15.6061C77.4757 15.3745 77.4012 15.1302 77.3155 14.9029C77.2165 14.6404 77.0963 14.3836 76.9517 14.1952C76.6804 13.8417 76.3162 13.5783 76.0297 13.4059C75.986 13.3796 75.9437 13.3552 75.9034 13.3327C75.9564 13.2924 76.0133 13.2477 76.0727 13.199C76.3596 12.9642 76.7182 12.6257 76.9654 12.2299C77.2081 11.8414 77.3972 11.3385 77.5304 10.9142C77.6629 11.3377 77.8558 11.8405 78.1168 12.2353C78.3342 12.5641 78.7251 12.9036 79.0399 13.1498C79.1179 13.2108 79.1928 13.2673 79.2617 13.3179Z" stroke="#FEEB81" stroke-width="0.5"/>
<path d="M310.527 26.8988C310.527 26.8988 310.202 25.1353 309.66 24.4985C309.118 23.8618 308.175 23.5216 308.175 23.5216C308.175 23.5216 309.158 22.973 309.66 22.2486C310.215 21.4472 310.527 20.0735 310.527 20.0735C310.527 20.0735 310.806 21.4336 311.404 22.2486C311.832 22.8323 313.009 23.5216 313.009 23.5216C313.009 23.5216 311.985 23.8293 311.404 24.4985C310.876 25.1066 310.527 26.8988 310.527 26.8988Z" fill="#FEEB81"/>
<path d="M25.3419 26.8987C25.3419 26.8987 25.0173 25.1352 24.4753 24.4984C23.9333 23.8616 22.9904 23.5215 22.9904 23.5215C22.9904 23.5215 23.9734 22.9728 24.4753 22.2484C25.0306 21.4471 25.3419 20.0734 25.3419 20.0734C25.3419 20.0734 25.6214 21.4335 26.2191 22.2484C26.6472 22.8322 27.8248 23.5215 27.8248 23.5215C27.8248 23.5215 26.8001 23.8291 26.2191 24.4984C25.6912 25.1064 25.3419 26.8987 25.3419 26.8987Z" fill="#FEEB81"/>
<circle cx="165.708" cy="20.0944" r="13.1593" transform="rotate(46.3635 165.708 20.0944)" stroke="#FEEB81"/>
<path d="M174.789 29.6186C169.529 34.6339 161.199 34.4356 156.184 29.1757C151.169 23.9159 151.367 15.5862 156.627 10.5709C157.777 9.47385 159.29 8.56086 160.925 7.95794C158.823 9.78471 157.687 12.2316 157.424 14.7915C157.072 18.2161 158.278 21.8402 160.788 24.4722C163.303 27.1098 167.054 28.5071 170.607 28.3733C173.232 28.2745 175.778 27.3363 177.636 25.4187C176.962 26.9966 175.924 28.5358 174.789 29.6186Z" stroke="#FEEB81"/>
</svg>
