<svg width="309" height="308" viewBox="0 0 309 308" fill="none" xmlns="http://www.w3.org/2000/svg">
<circle cx="154.5" cy="154" r="153.255" stroke="#EBD16F"/>
<path d="M1.26834 154.985H7.65064" stroke="#EBD16F" stroke-width="0.5"/>
<path d="M1.384 146.317L8.04056 146.589M2.17362 137.903L8.75379 138.167M3.40693 129.302L10.2958 129.885M5.00693 120.367L11.4753 121.743M7.036 111.81L13.3286 114.025M9.79706 103.238L16.0897 105.87M12.4939 96.0459L18.6902 98.9033M16.11 87.8625L21.9888 91.0691M20.3349 80.1032L25.8622 83.6828M24.6515 72.4176L30.2263 76.28M29.3209 65.1139L34.7586 69.2569M34.7586 58.6255L39.807 62.9015M40.1229 52.0849L44.8657 56.2567M46.0216 45.8978L50.8551 50.5587M52.3408 39.7799L56.71 44.6756M59.1315 33.8841L63.2902 39.2009M65.9222 28.8305L69.8703 34.3053M72.8183 24.1981L76.3979 29.8308M8.33266 164.013H1.384M2.22626 171.752L8.91171 171.489M3.48965 180.49L10.1976 180.098M5.17418 188.913L11.8596 187.913M7.54304 197.599L13.9126 195.914M10.1976 205.411L16.6724 203.305M13.3862 213.707L19.4323 211.172M16.6724 221.62L22.8026 218.654M20.6507 229.078L26.5465 225.762M25.1252 236.395L30.5999 232.605M30.2314 244.028L35.4429 239.817M35.4429 250.872L40.5491 246.187M41.1808 257.189L45.9712 252.609M46.9714 263.348L51.6525 258.626M52.7619 269.033L57.5169 264.086M59.4043 274.086L63.8392 269.242M65.3603 278.903L69.7591 273.764M71.7324 283.014L75.679 277.751M78.4745 287.125L81.8045 281.493" stroke="#EBD16F" stroke-width="0.5"/>
<path d="M245.418 269.155L249.471 274.686" stroke="#EBD16F" stroke-width="0.5"/>
<path d="M251.949 263.578L256.132 268.495M257.857 258.065L262.505 262.783M263.69 251.911L268.827 256.24M269.111 245.483L274.249 249.886M274.037 238.776L279.394 243.032M278.293 232.465L283.943 236.207M282.769 225.053L288.346 228.429M238.227 274.292L241.977 279.647M286.726 217.172L292.423 220.458M290.256 209.238L296.198 212.209M293.224 201.177L299.502 203.497M295.848 192.916L302.14 194.699M297.631 185.297L304.237 186.486M299.204 177.293L305.844 177.748M300.287 169.325L306.962 169.74M300.777 161.635H307.557M300.986 153.841L307.732 153.667M300.777 146.117L307.557 145.523M300.147 138.079L306.613 136.96M299.204 129.97L305.39 128.642M297.526 122.281L303.922 120.533M295.534 114.312L301.79 112.04M293.227 106.867L299.169 104.351M290.816 100.122L296.617 97.0462M287.88 93.1667L293.542 89.9162M284.944 86.9804L290.466 83.5202M281.519 80.864L287.076 77.264M277.849 74.8874L283.301 71.1826M273.655 68.8758L278.723 64.7516M269.006 62.5847L274.214 58.5653M263.868 56.643L269.006 52.2043M258.87 51.1208L263.519 46.5073M253.453 45.6335L257.752 40.985M247.511 40.6006L251.461 35.6026M241.36 35.9172L245.065 30.5347M235.139 31.6881L238.983 26.096M229.127 27.6688L232.657 22.2164" stroke="#EBD16F" stroke-width="0.5"/>
<circle cx="154.5" cy="154" r="146.293" stroke="#EBD16F"/>
<circle cx="154.5" cy="154" r="141.651" stroke="#EBD16F"/>
<circle cx="154.5" cy="154" r="133.778" stroke="#EBD16F" stroke-width="0.5"/>
<circle cx="154.5" cy="110.484" r="103.027" stroke="#EBD16F" stroke-width="0.5"/>
<path d="M12.3488 154.58H296.651" stroke="#EBD16F" stroke-width="0.5"/>
<path d="M31.4595 83.3904L277.25 225.602" stroke="#EBD16F" stroke-width="0.5"/>
<path d="M82.2871 32.1375L226.331 276.375" stroke="#EBD16F" stroke-width="0.5"/>
<path d="M154.5 12.4291L154.5 295.84" stroke="#EBD16F" stroke-width="0.5"/>
<path d="M224.411 30.8088L85.0043 277.616" stroke="#EBD16F" stroke-width="0.5"/>
<path d="M277.384 83.1204L31.6162 226.04" stroke="#EBD16F" stroke-width="0.5"/>
<path d="M12.929 154.576C12.929 154.576 77.9124 116.863 154.5 116.863C231.088 116.863 296.31 154.572 296.31 154.572M13.2168 166.765C13.2168 166.765 47.1613 252.055 154.5 252.055C261.839 252.055 295.724 167.692 295.724 167.692" stroke="#EBD16F" stroke-width="0.5"/>
</svg>
