<svg width="341" height="39" viewBox="0 0 341 39" fill="none" xmlns="http://www.w3.org/2000/svg">
<path d="M50.6283 11.9502L51.973 16.6621L52.0793 17.0344L52.4549 16.9403L57.2079 15.7489L53.7996 19.2694L53.5303 19.5476L53.7996 19.8258L57.2079 23.3463L52.4549 22.1549L52.0793 22.0608L51.973 22.4332L50.6283 27.145L49.2836 22.4332L49.1773 22.0608L48.8017 22.1549L44.0488 23.3463L47.457 19.8258L47.7264 19.5476L47.457 19.2694L44.0488 15.7489L48.8017 16.9403L49.1773 17.0344L49.2836 16.6621L50.6283 11.9502Z" stroke="#FEEB81" stroke-width="0.8"/>
<path d="M283.388 11.9502L284.733 16.6621L284.839 17.0344L285.215 16.9403L289.968 15.7489L286.56 19.2694L286.29 19.5476L286.56 19.8258L289.968 23.3463L285.215 22.1549L284.839 22.0608L284.733 22.4332L283.388 27.145L282.044 22.4332L281.937 22.0608L281.562 22.1549L276.809 23.3463L280.217 19.8258L280.486 19.5476L280.217 19.2694L276.809 15.7489L281.562 16.9403L281.937 17.0344L282.044 16.6621L283.388 11.9502Z" stroke="#FEEB81" stroke-width="0.8"/>
<path d="M128.053 12.3491L128.053 22.6588M123.033 17.4327L133.077 17.4327" stroke="#FEEB81" stroke-linecap="round"/>
<path d="M207.735 12.3491L207.735 22.6588M202.715 17.4327L212.758 17.4327" stroke="#FEEB81" stroke-linecap="round"/>
<mask id="path-5-inside-1_205_417" fill="white">
<path d="M101.774 14.2356C101.774 14.2356 102.228 16.4324 102.986 17.2257C103.743 18.0189 105.062 18.4427 105.062 18.4427C105.062 18.4427 103.687 19.1261 102.986 20.0285C102.209 21.0268 101.774 22.7381 101.774 22.7381C101.774 22.7381 101.383 21.0437 100.548 20.0285C99.9491 19.3013 98.3026 18.4427 98.3026 18.4427C98.3026 18.4427 99.7353 18.0594 100.548 17.2257C101.286 16.4682 101.774 14.2356 101.774 14.2356Z"/>
</mask>
<path d="M101.774 14.2356L102.264 14.1344L101.286 14.1287L101.774 14.2356ZM105.062 18.4427L105.284 18.8904L106.385 18.3429L105.215 17.9667L105.062 18.4427ZM102.986 20.0285L102.591 19.7216L102.986 20.0285ZM101.774 22.7381L101.287 22.8505L102.259 22.8613L101.774 22.7381ZM100.548 20.0285L100.934 19.7108L100.548 20.0285ZM98.3026 18.4427L98.1734 17.9597L96.9319 18.2918L98.0714 18.886L98.3026 18.4427ZM100.548 17.2257L100.906 17.5746L100.548 17.2257ZM101.774 14.2356C101.284 14.3367 101.284 14.3368 101.284 14.3369C101.284 14.3369 101.284 14.337 101.284 14.3371C101.284 14.3372 101.285 14.3374 101.285 14.3376C101.285 14.3381 101.285 14.3386 101.285 14.3393C101.285 14.3407 101.286 14.3427 101.286 14.3451C101.287 14.35 101.289 14.3569 101.291 14.3658C101.294 14.3835 101.3 14.409 101.307 14.4415C101.322 14.5063 101.343 14.5989 101.372 14.7121C101.428 14.938 101.511 15.2485 101.62 15.586C101.728 15.9223 101.863 16.2929 102.024 16.6364C102.182 16.9734 102.38 17.3156 102.624 17.5711L103.347 16.8803C103.212 16.7391 103.069 16.5093 102.929 16.2113C102.792 15.9197 102.672 15.5924 102.572 15.2803C102.472 14.9694 102.394 14.6812 102.342 14.4704C102.316 14.3653 102.296 14.28 102.283 14.2216C102.276 14.1924 102.271 14.17 102.268 14.1551C102.266 14.1477 102.265 14.1422 102.265 14.1387C102.264 14.137 102.264 14.1358 102.264 14.135C102.264 14.1347 102.264 14.1344 102.264 14.1343C102.264 14.1343 102.264 14.1343 102.264 14.1343C102.264 14.1343 102.264 14.1343 102.264 14.1343C102.264 14.1344 102.264 14.1344 101.774 14.2356ZM102.624 17.5711C103.064 18.0312 103.645 18.3666 104.09 18.5818C104.317 18.6916 104.519 18.7747 104.664 18.8307C104.737 18.8588 104.796 18.8802 104.838 18.8949C104.859 18.9022 104.876 18.9079 104.888 18.9118C104.894 18.9138 104.898 18.9154 104.902 18.9165C104.904 18.9171 104.905 18.9176 104.906 18.9179C104.907 18.9181 104.907 18.9183 104.908 18.9184C104.908 18.9185 104.908 18.9185 104.908 18.9186C104.908 18.9186 104.908 18.9186 104.908 18.9187C104.908 18.9187 104.909 18.9187 105.062 18.4427C105.215 17.9667 105.215 17.9667 105.215 17.9667C105.215 17.9668 105.215 17.9668 105.215 17.9668C105.215 17.9668 105.215 17.9668 105.215 17.9668C105.215 17.9669 105.215 17.9669 105.215 17.9668C105.215 17.9668 105.214 17.9666 105.214 17.9664C105.212 17.9659 105.209 17.965 105.205 17.9637C105.198 17.961 105.185 17.9568 105.169 17.951C105.136 17.9394 105.086 17.9215 105.023 17.8975C104.898 17.8492 104.723 17.7769 104.525 17.6815C104.122 17.4865 103.665 17.2134 103.347 16.8803L102.624 17.5711ZM105.062 18.4427C104.839 17.995 104.839 17.9951 104.839 17.9951C104.839 17.9951 104.839 17.9952 104.839 17.9952C104.838 17.9953 104.838 17.9953 104.838 17.9954C104.838 17.9956 104.837 17.9958 104.837 17.9961C104.836 17.9966 104.834 17.9973 104.833 17.9982C104.829 17.9999 104.825 18.0023 104.819 18.0053C104.807 18.0113 104.79 18.02 104.769 18.0312C104.726 18.0534 104.666 18.0858 104.592 18.1272C104.444 18.2099 104.24 18.3297 104.012 18.4795C103.566 18.7731 102.992 19.2054 102.591 19.7216L103.38 20.3355C103.681 19.9492 104.145 19.5887 104.562 19.315C104.765 19.1811 104.948 19.0736 105.08 19C105.146 18.9633 105.198 18.9351 105.234 18.9165C105.251 18.9072 105.265 18.9003 105.273 18.8959C105.278 18.8937 105.281 18.8922 105.283 18.8912C105.283 18.8908 105.284 18.8905 105.284 18.8903C105.285 18.8903 105.285 18.8902 105.285 18.8902C105.285 18.8902 105.285 18.8903 105.284 18.8903C105.284 18.8903 105.284 18.8903 105.284 18.8903C105.284 18.8904 105.284 18.8904 105.062 18.4427ZM102.591 19.7216C102.155 20.2818 101.831 21.0165 101.62 21.5831C101.513 21.8716 101.431 22.1272 101.375 22.3111C101.348 22.4033 101.327 22.4778 101.312 22.5299C101.305 22.556 101.299 22.5765 101.296 22.5909C101.294 22.5981 101.292 22.6037 101.291 22.6077C101.291 22.6097 101.29 22.6113 101.29 22.6125C101.29 22.6131 101.29 22.6136 101.29 22.614C101.29 22.6142 101.29 22.6144 101.29 22.6145C101.29 22.6146 101.289 22.6147 101.289 22.6147C101.289 22.6148 101.289 22.6149 101.774 22.7381C102.259 22.8613 102.259 22.8614 102.259 22.8614C102.259 22.8615 102.259 22.8615 102.259 22.8615C102.259 22.8616 102.259 22.8616 102.259 22.8616C102.259 22.8615 102.259 22.8614 102.259 22.8612C102.259 22.8607 102.259 22.8599 102.259 22.8586C102.26 22.8561 102.261 22.852 102.263 22.8464C102.265 22.8352 102.27 22.818 102.276 22.7953C102.289 22.75 102.308 22.683 102.333 22.5991C102.384 22.431 102.459 22.1963 102.557 21.9322C102.758 21.3936 103.04 20.7736 103.38 20.3355L102.591 19.7216ZM101.774 22.7381C102.261 22.6257 102.261 22.6256 102.261 22.6255C102.261 22.6255 102.261 22.6254 102.261 22.6253C102.261 22.6252 102.261 22.625 102.261 22.6248C102.261 22.6243 102.261 22.6238 102.261 22.6232C102.26 22.6219 102.26 22.6203 102.259 22.6182C102.258 22.6141 102.257 22.6084 102.255 22.6011C102.252 22.5866 102.247 22.566 102.24 22.5398C102.227 22.4875 102.207 22.4129 102.181 22.3207C102.128 22.1367 102.05 21.881 101.944 21.5917C101.735 21.023 101.405 20.2833 100.934 19.7108L100.162 20.3463C100.526 20.789 100.809 21.4041 101.005 21.9364C101.101 22.1975 101.172 22.4289 101.219 22.5943C101.242 22.6768 101.26 22.7426 101.271 22.7869C101.277 22.809 101.281 22.8257 101.283 22.8366C101.285 22.842 101.286 22.8459 101.286 22.8482C101.287 22.8494 101.287 22.8502 101.287 22.8505C101.287 22.8507 101.287 22.8508 101.287 22.8508C101.287 22.8508 101.287 22.8508 101.287 22.8507C101.287 22.8507 101.287 22.8506 101.287 22.8506C101.287 22.8506 101.287 22.8505 101.774 22.7381ZM100.934 19.7108C100.577 19.2778 99.9517 18.8442 99.4666 18.5395C99.2147 18.3813 98.9828 18.2469 98.8139 18.1522C98.7293 18.1047 98.6602 18.067 98.6118 18.0409C98.5876 18.0278 98.5685 18.0177 98.5553 18.0107C98.5487 18.0072 98.5436 18.0045 98.54 18.0026C98.5381 18.0016 98.5367 18.0009 98.5357 18.0004C98.5352 18.0001 98.5348 17.9999 98.5345 17.9997C98.5343 17.9996 98.5342 17.9996 98.5341 17.9995C98.534 17.9995 98.5339 17.9994 98.5339 17.9994C98.5339 17.9994 98.5338 17.9994 98.3026 18.4427C98.0714 18.886 98.0714 18.886 98.0714 18.886C98.0713 18.886 98.0713 18.886 98.0713 18.886C98.0713 18.886 98.0713 18.886 98.0714 18.886C98.0715 18.8861 98.0716 18.8862 98.0719 18.8863C98.0725 18.8866 98.0734 18.8871 98.0748 18.8878C98.0774 18.8892 98.0816 18.8914 98.0872 18.8944C98.0984 18.9003 98.1153 18.9093 98.1373 18.9212C98.1813 18.9449 98.2454 18.9799 98.3246 19.0243C98.4831 19.1132 98.7002 19.239 98.9347 19.3863C99.4225 19.6927 99.9194 20.052 100.162 20.3463L100.934 19.7108ZM98.3026 18.4427C98.4318 18.9257 98.4319 18.9257 98.432 18.9257C98.4321 18.9257 98.4322 18.9256 98.4323 18.9256C98.4325 18.9256 98.4326 18.9255 98.4329 18.9254C98.4333 18.9253 98.4338 18.9252 98.4344 18.925C98.4356 18.9247 98.4372 18.9243 98.4391 18.9238C98.4428 18.9227 98.448 18.9213 98.4544 18.9195C98.4673 18.9159 98.4854 18.9107 98.5081 18.9039C98.5536 18.8904 98.618 18.8705 98.6972 18.8442C98.8551 18.7916 99.0738 18.7124 99.32 18.6053C99.8024 18.3954 100.433 18.0599 100.906 17.5746L100.189 16.8768C99.85 17.2252 99.358 17.4982 98.921 17.6884C98.7075 17.7813 98.5172 17.8501 98.3812 17.8954C98.3133 17.918 98.2594 17.9346 98.2234 17.9453C98.2054 17.9507 98.1919 17.9545 98.1834 17.9569C98.1791 17.9581 98.1761 17.9589 98.1744 17.9594C98.1736 17.9596 98.1731 17.9598 98.1729 17.9598C98.1728 17.9598 98.1728 17.9599 98.1729 17.9598C98.1729 17.9598 98.173 17.9598 98.1731 17.9598C98.1731 17.9598 98.1732 17.9597 98.1732 17.9597C98.1733 17.9597 98.1734 17.9597 98.3026 18.4427ZM100.906 17.5746C101.147 17.3266 101.344 16.9867 101.502 16.6529C101.664 16.3117 101.802 15.9404 101.913 15.6026C102.024 15.2634 102.111 14.95 102.17 14.7217C102.2 14.6073 102.223 14.5137 102.238 14.4481C102.246 14.4154 102.252 14.3895 102.256 14.3716C102.258 14.3627 102.26 14.3557 102.261 14.3508C102.261 14.3483 102.262 14.3464 102.262 14.345C102.262 14.3443 102.262 14.3438 102.262 14.3433C102.262 14.3431 102.262 14.3429 102.262 14.3428C102.262 14.3427 102.262 14.3426 102.262 14.3426C102.262 14.3425 102.262 14.3424 101.774 14.2356C101.286 14.1287 101.286 14.1287 101.286 14.1287C101.286 14.1286 101.286 14.1286 101.286 14.1286C101.286 14.1286 101.286 14.1286 101.286 14.1287C101.286 14.1288 101.286 14.129 101.285 14.1294C101.285 14.1302 101.285 14.1315 101.285 14.1333C101.284 14.1368 101.283 14.1425 101.281 14.1501C101.277 14.1652 101.272 14.1881 101.265 14.2179C101.251 14.2774 101.23 14.3641 101.202 14.4708C101.147 14.6848 101.066 14.9769 100.963 15.2906C100.859 15.6056 100.736 15.9345 100.599 16.2249C100.458 16.5228 100.317 16.7461 100.189 16.8768L100.906 17.5746Z" fill="#FEEB81" mask="url(#path-5-inside-1_205_417)"/>
<mask id="path-7-inside-2_205_417" fill="white">
<path d="M233.201 14.2356C233.201 14.2356 233.655 16.4324 234.412 17.2257C235.17 18.0189 236.488 18.4427 236.488 18.4427C236.488 18.4427 235.114 19.1261 234.412 20.0285C233.636 21.0268 233.201 22.7381 233.201 22.7381C233.201 22.7381 232.81 21.0437 231.974 20.0285C231.376 19.3013 229.729 18.4427 229.729 18.4427C229.729 18.4427 231.162 18.0594 231.974 17.2257C232.712 16.4682 233.201 14.2356 233.201 14.2356Z"/>
</mask>
<path d="M233.201 14.2356L233.69 14.1344L232.712 14.1287L233.201 14.2356ZM236.488 18.4427L236.711 18.8904L237.812 18.3429L236.641 17.9667L236.488 18.4427ZM234.412 20.0285L234.018 19.7216L234.412 20.0285ZM233.201 22.7381L232.714 22.8505L233.685 22.8613L233.201 22.7381ZM231.974 20.0285L232.36 19.7108L231.974 20.0285ZM229.729 18.4427L229.6 17.9597L228.359 18.2918L229.498 18.886L229.729 18.4427ZM231.974 17.2257L232.332 17.5746L231.974 17.2257ZM233.201 14.2356C232.711 14.3367 232.711 14.3368 232.711 14.3369C232.711 14.3369 232.711 14.337 232.711 14.3371C232.711 14.3372 232.711 14.3374 232.711 14.3376C232.711 14.3381 232.711 14.3386 232.712 14.3393C232.712 14.3407 232.712 14.3427 232.713 14.3451C232.714 14.35 232.715 14.3569 232.717 14.3658C232.721 14.3835 232.727 14.409 232.734 14.4415C232.749 14.5063 232.77 14.5989 232.798 14.7121C232.855 14.938 232.938 15.2485 233.046 15.586C233.154 15.9223 233.289 16.2929 233.451 16.6364C233.609 16.9734 233.807 17.3156 234.051 17.5711L234.774 16.8803C234.639 16.7391 234.496 16.5093 234.356 16.2113C234.219 15.9197 234.099 15.5924 233.998 15.2803C233.899 14.9694 233.821 14.6812 233.769 14.4704C233.742 14.3653 233.723 14.28 233.709 14.2216C233.703 14.1924 233.698 14.17 233.695 14.1551C233.693 14.1477 233.692 14.1422 233.691 14.1387C233.691 14.137 233.691 14.1358 233.691 14.135C233.69 14.1347 233.69 14.1344 233.69 14.1343C233.69 14.1343 233.69 14.1343 233.69 14.1343C233.69 14.1343 233.69 14.1343 233.69 14.1343C233.69 14.1344 233.69 14.1344 233.201 14.2356ZM234.051 17.5711C234.49 18.0312 235.072 18.3666 235.517 18.5818C235.744 18.6916 235.945 18.7747 236.091 18.8307C236.164 18.8588 236.223 18.8802 236.265 18.8949C236.286 18.9022 236.303 18.9079 236.314 18.9118C236.32 18.9138 236.325 18.9154 236.329 18.9165C236.33 18.9171 236.332 18.9176 236.333 18.9179C236.333 18.9181 236.334 18.9183 236.334 18.9184C236.335 18.9185 236.335 18.9185 236.335 18.9186C236.335 18.9186 236.335 18.9186 236.335 18.9187C236.335 18.9187 236.335 18.9187 236.488 18.4427C236.641 17.9667 236.641 17.9667 236.641 17.9667C236.642 17.9668 236.642 17.9668 236.642 17.9668C236.642 17.9668 236.642 17.9668 236.642 17.9668C236.642 17.9669 236.642 17.9669 236.642 17.9668C236.642 17.9668 236.641 17.9666 236.64 17.9664C236.639 17.9659 236.636 17.965 236.632 17.9637C236.624 17.961 236.612 17.9568 236.595 17.951C236.562 17.9394 236.513 17.9215 236.45 17.8975C236.325 17.8492 236.149 17.7769 235.952 17.6815C235.549 17.4865 235.092 17.2134 234.774 16.8803L234.051 17.5711ZM236.488 18.4427C236.266 17.995 236.266 17.9951 236.266 17.9951C236.265 17.9951 236.265 17.9952 236.265 17.9952C236.265 17.9953 236.265 17.9953 236.265 17.9954C236.264 17.9956 236.264 17.9958 236.264 17.9961C236.262 17.9966 236.261 17.9973 236.259 17.9982C236.256 17.9999 236.251 18.0023 236.245 18.0053C236.233 18.0113 236.217 18.02 236.195 18.0312C236.153 18.0534 236.093 18.0858 236.019 18.1272C235.871 18.2099 235.666 18.3297 235.439 18.4795C234.992 18.7731 234.419 19.2054 234.018 19.7216L234.807 20.3355C235.107 19.9492 235.572 19.5887 235.988 19.315C236.192 19.1811 236.375 19.0736 236.507 19C236.572 18.9633 236.625 18.9351 236.66 18.9165C236.678 18.9072 236.691 18.9003 236.7 18.8959C236.704 18.8937 236.707 18.8922 236.709 18.8912C236.71 18.8908 236.711 18.8905 236.711 18.8903C236.711 18.8903 236.711 18.8902 236.711 18.8902C236.711 18.8902 236.711 18.8903 236.711 18.8903C236.711 18.8903 236.711 18.8903 236.711 18.8903C236.711 18.8904 236.711 18.8904 236.488 18.4427ZM234.018 19.7216C233.582 20.2818 233.258 21.0165 233.047 21.5831C232.939 21.8716 232.857 22.1272 232.802 22.3111C232.774 22.4033 232.753 22.4778 232.739 22.5299C232.732 22.556 232.726 22.5765 232.722 22.5909C232.721 22.5981 232.719 22.6037 232.718 22.6077C232.717 22.6097 232.717 22.6113 232.717 22.6125C232.717 22.6131 232.716 22.6136 232.716 22.614C232.716 22.6142 232.716 22.6144 232.716 22.6145C232.716 22.6146 232.716 22.6147 232.716 22.6147C232.716 22.6148 232.716 22.6149 233.201 22.7381C233.685 22.8613 233.685 22.8614 233.685 22.8614C233.685 22.8615 233.685 22.8615 233.685 22.8615C233.685 22.8616 233.685 22.8616 233.685 22.8616C233.685 22.8615 233.685 22.8614 233.685 22.8612C233.685 22.8607 233.686 22.8599 233.686 22.8586C233.687 22.8561 233.688 22.852 233.689 22.8464C233.692 22.8352 233.697 22.818 233.703 22.7953C233.716 22.75 233.734 22.683 233.76 22.5991C233.81 22.431 233.886 22.1963 233.984 21.9322C234.185 21.3936 234.466 20.7736 234.807 20.3355L234.018 19.7216ZM233.201 22.7381C233.688 22.6257 233.688 22.6256 233.688 22.6255C233.688 22.6255 233.688 22.6254 233.688 22.6253C233.688 22.6252 233.688 22.625 233.688 22.6248C233.688 22.6243 233.688 22.6238 233.687 22.6232C233.687 22.6219 233.687 22.6203 233.686 22.6182C233.685 22.6141 233.684 22.6084 233.682 22.6011C233.679 22.5866 233.673 22.566 233.667 22.5398C233.653 22.4875 233.634 22.4129 233.608 22.3207C233.555 22.1367 233.476 21.881 233.37 21.5917C233.161 21.023 232.832 20.2833 232.36 19.7108L231.588 20.3463C231.953 20.789 232.236 21.4041 232.432 21.9364C232.527 22.1975 232.599 22.4289 232.646 22.5943C232.669 22.6768 232.687 22.7426 232.698 22.7869C232.703 22.809 232.708 22.8257 232.71 22.8366C232.712 22.842 232.712 22.8459 232.713 22.8482C232.713 22.8494 232.713 22.8502 232.714 22.8505C232.714 22.8507 232.714 22.8508 232.714 22.8508C232.714 22.8508 232.714 22.8508 232.714 22.8507C232.714 22.8507 232.714 22.8506 232.714 22.8506C232.714 22.8506 232.714 22.8505 233.201 22.7381ZM232.36 19.7108C232.004 19.2778 231.378 18.8442 230.893 18.5395C230.641 18.3813 230.409 18.2469 230.241 18.1522C230.156 18.1047 230.087 18.067 230.039 18.0409C230.014 18.0278 229.995 18.0177 229.982 18.0107C229.975 18.0072 229.97 18.0045 229.967 18.0026C229.965 18.0016 229.963 18.0009 229.962 18.0004C229.962 18.0001 229.961 17.9999 229.961 17.9997C229.961 17.9996 229.961 17.9996 229.961 17.9995C229.961 17.9995 229.961 17.9994 229.961 17.9994C229.961 17.9994 229.961 17.9994 229.729 18.4427C229.498 18.886 229.498 18.886 229.498 18.886C229.498 18.886 229.498 18.886 229.498 18.886C229.498 18.886 229.498 18.886 229.498 18.886C229.498 18.8861 229.498 18.8862 229.499 18.8863C229.499 18.8866 229.5 18.8871 229.501 18.8878C229.504 18.8892 229.508 18.8914 229.514 18.8944C229.525 18.9003 229.542 18.9093 229.564 18.9212C229.608 18.9449 229.672 18.9799 229.751 19.0243C229.91 19.1132 230.127 19.239 230.361 19.3863C230.849 19.6927 231.346 20.052 231.588 20.3463L232.36 19.7108ZM229.729 18.4427C229.859 18.9257 229.859 18.9257 229.859 18.9257C229.859 18.9257 229.859 18.9256 229.859 18.9256C229.859 18.9256 229.859 18.9255 229.86 18.9254C229.86 18.9253 229.861 18.9252 229.861 18.925C229.862 18.9247 229.864 18.9243 229.866 18.9238C229.87 18.9227 229.875 18.9213 229.881 18.9195C229.894 18.9159 229.912 18.9107 229.935 18.9039C229.98 18.8904 230.045 18.8705 230.124 18.8442C230.282 18.7916 230.501 18.7124 230.747 18.6053C231.229 18.3954 231.86 18.0599 232.332 17.5746L231.616 16.8768C231.277 17.2252 230.785 17.4982 230.348 17.6884C230.134 17.7813 229.944 17.8501 229.808 17.8954C229.74 17.918 229.686 17.9346 229.65 17.9453C229.632 17.9507 229.619 17.9545 229.61 17.9569C229.606 17.9581 229.603 17.9589 229.601 17.9594C229.6 17.9596 229.6 17.9598 229.6 17.9598C229.6 17.9598 229.6 17.9599 229.6 17.9598C229.6 17.9598 229.6 17.9598 229.6 17.9598C229.6 17.9598 229.6 17.9597 229.6 17.9597C229.6 17.9597 229.6 17.9597 229.729 18.4427ZM232.332 17.5746C232.574 17.3266 232.771 16.9867 232.929 16.6529C233.091 16.3117 233.228 15.9404 233.339 15.6026C233.451 15.2634 233.538 14.95 233.597 14.7217C233.627 14.6073 233.649 14.5137 233.665 14.4481C233.673 14.4154 233.679 14.3895 233.683 14.3716C233.685 14.3627 233.686 14.3557 233.687 14.3508C233.688 14.3483 233.688 14.3464 233.689 14.345C233.689 14.3443 233.689 14.3438 233.689 14.3433C233.689 14.3431 233.689 14.3429 233.689 14.3428C233.689 14.3427 233.689 14.3426 233.689 14.3426C233.689 14.3425 233.689 14.3424 233.201 14.2356C232.712 14.1287 232.712 14.1287 232.712 14.1287C232.712 14.1286 232.712 14.1286 232.712 14.1286C232.712 14.1286 232.712 14.1286 232.712 14.1287C232.712 14.1288 232.712 14.129 232.712 14.1294C232.712 14.1302 232.712 14.1315 232.711 14.1333C232.71 14.1368 232.709 14.1425 232.708 14.1501C232.704 14.1652 232.699 14.1881 232.692 14.2179C232.678 14.2774 232.657 14.3641 232.629 14.4708C232.573 14.6848 232.492 14.9769 232.389 15.2906C232.286 15.6056 232.163 15.9345 232.025 16.2249C231.884 16.5228 231.744 16.7461 231.616 16.8768L232.332 17.5746Z" fill="#FEEB81" mask="url(#path-7-inside-2_205_417)"/>
<path d="M75.3217 26.0887C75.3648 26.0672 75.4101 26.0438 75.4569 26.0185C75.7678 25.8501 76.1631 25.5861 76.4549 25.2133C76.5974 25.0312 76.717 24.7768 76.816 24.5165C76.9035 24.2864 76.9804 24.037 77.0452 23.8005C77.1077 24.0322 77.1822 24.2764 77.2679 24.5038C77.3669 24.7662 77.4871 25.023 77.6317 25.2114C77.903 25.5649 78.2673 25.8283 78.5537 26.0007C78.5974 26.027 78.6397 26.0514 78.68 26.0739C78.627 26.1142 78.5701 26.1589 78.5107 26.2076C78.2238 26.4425 77.8653 26.7809 77.618 27.1767C77.3753 27.5652 77.1862 28.0681 77.053 28.4924C76.9205 28.0689 76.7276 27.5662 76.4666 27.1713C76.2492 26.8425 75.8583 26.503 75.5435 26.2568C75.4656 26.1959 75.3906 26.1393 75.3217 26.0887Z" stroke="#FEEB81" stroke-width="0.5"/>
<path d="M0.511183 27.7593C0.554342 27.7379 0.599603 27.7145 0.646402 27.6891C0.957285 27.5207 1.35261 27.2568 1.64442 26.8839C1.78695 26.7018 1.90651 26.4475 2.00552 26.1872C2.09306 25.9571 2.1699 25.7077 2.23471 25.4712C2.29723 25.7028 2.37169 25.9471 2.45744 26.1744C2.55644 26.4369 2.67665 26.6936 2.82121 26.882C3.09247 27.2356 3.45677 27.499 3.74318 27.6713C3.78696 27.6977 3.82926 27.7221 3.86955 27.7446C3.81654 27.7849 3.7596 27.8296 3.70018 27.8782C3.41334 28.1131 3.05477 28.4516 2.80752 28.8474C2.5648 29.2359 2.37574 29.7388 2.2425 30.1631C2.11006 29.7396 1.91714 29.2368 1.65609 28.8419C1.43874 28.5132 1.0478 28.1736 0.733016 27.9275C0.655067 27.8665 0.580082 27.81 0.511183 27.7593Z" stroke="#FEEB81" stroke-width="0.5"/>
<path d="M336.172 27.7592C336.215 27.7377 336.26 27.7144 336.307 27.689C336.618 27.5206 337.013 27.2567 337.305 26.8838C337.448 26.7017 337.567 26.4474 337.666 26.1871C337.754 25.9569 337.83 25.7076 337.895 25.471C337.958 25.7027 338.032 25.947 338.118 26.1743C338.217 26.4367 338.337 26.6935 338.482 26.8819C338.753 27.2354 339.117 27.4988 339.404 27.6712C339.448 27.6975 339.49 27.722 339.53 27.7445C339.477 27.7848 339.42 27.8295 339.361 27.8781C339.074 28.113 338.715 28.4515 338.468 28.8472C338.225 29.2358 338.036 29.7386 337.903 30.163C337.771 29.7395 337.578 29.2367 337.317 28.8418C337.099 28.5131 336.708 28.1735 336.394 27.9274C336.316 27.8664 336.241 27.8099 336.172 27.7592Z" stroke="#FEEB81" stroke-width="0.5"/>
<path d="M256.133 26.0885C256.177 26.0671 256.222 26.0437 256.269 26.0184C256.58 25.8499 256.975 25.586 257.267 25.2132C257.409 25.031 257.529 24.7767 257.628 24.5164C257.715 24.2863 257.792 24.0369 257.857 23.8004C257.92 24.032 257.994 24.2763 258.08 24.5036C258.179 24.7661 258.299 25.0229 258.443 25.2113C258.715 25.5648 259.079 25.8282 259.365 26.0006C259.409 26.0269 259.452 26.0513 259.492 26.0738C259.439 26.1141 259.382 26.1588 259.322 26.2075C259.036 26.4423 258.677 26.7808 258.43 27.1766C258.187 27.5651 257.998 28.068 257.865 28.4923C257.732 28.0688 257.539 27.566 257.278 27.1712C257.061 26.8424 256.67 26.5029 256.355 26.2567C256.277 26.1957 256.202 26.1392 256.133 26.0885Z" stroke="#FEEB81" stroke-width="0.5"/>
<path d="M25.8687 12.5077C25.8687 12.5077 26.1933 14.2712 26.7353 14.908C27.2772 15.5447 28.2201 15.8849 28.2201 15.8849C28.2201 15.8849 27.2372 16.4335 26.7353 17.1579C26.18 17.9593 25.8687 19.333 25.8687 19.333C25.8687 19.333 25.5892 17.9729 24.9915 17.1579C24.5634 16.5742 23.3858 15.8849 23.3858 15.8849C23.3858 15.8849 24.4105 15.5772 24.9915 14.908C25.5194 14.2999 25.8687 12.5077 25.8687 12.5077Z" fill="#FEEB81"/>
<path d="M311.053 12.5078C311.053 12.5078 311.378 14.2713 311.92 14.9081C312.462 15.5448 313.405 15.885 313.405 15.885C313.405 15.885 312.422 16.4337 311.92 17.158C311.365 17.9594 311.053 19.3331 311.053 19.3331C311.053 19.3331 310.774 17.973 310.176 17.158C309.748 16.5743 308.57 15.885 308.57 15.885C308.57 15.885 309.595 15.5773 310.176 14.9081C310.704 14.3 311.053 12.5078 311.053 12.5078Z" fill="#FEEB81"/>
<circle cx="165.687" cy="19.3122" r="13.1593" transform="rotate(-133.637 165.687 19.3122)" stroke="#FEEB81"/>
<path d="M156.606 9.78792C161.866 4.77263 170.196 4.97089 175.211 10.2308C180.226 15.4906 180.028 23.8203 174.768 28.8356C173.618 29.9326 172.106 30.8456 170.47 31.4485C172.573 29.6218 173.708 27.1748 173.971 24.615C174.324 21.1904 173.117 17.5663 170.607 14.9343C168.092 12.2967 164.341 10.8994 160.788 11.0332C158.164 11.132 155.617 12.0702 153.759 13.9878C154.433 12.4099 155.471 10.8707 156.606 9.78792Z" stroke="#FEEB81"/>
</svg>
